<svg width="24" height="24" viewBox="0 0 24 24" fill="none" xmlns="http://www.w3.org/2000/svg">
<path d="M9.74998 17.9999C9.65148 18.0001 9.55393 17.9807 9.46293 17.9431C9.37192 17.9054 9.28927 17.8501 9.21971 17.7803L3.96971 12.5307C3.90006 12.4611 3.84481 12.3784 3.80711 12.2874C3.76942 12.1964 3.75001 12.0989 3.75 12.0004C3.74999 11.9019 3.76938 11.8044 3.80706 11.7134C3.84475 11.6224 3.89998 11.5397 3.96962 11.4701C4.03926 11.4004 4.12193 11.3452 4.21292 11.3075C4.30391 11.2698 4.40143 11.2504 4.49992 11.2504C4.59841 11.2504 4.69594 11.2698 4.78693 11.3074C4.87793 11.3451 4.96061 11.4004 5.03026 11.47L9.74998 16.1893L19.7196 6.22004C19.8603 6.07955 20.051 6.00067 20.2498 6.00073C20.4487 6.0008 20.6393 6.0798 20.7799 6.22038C20.9205 6.36097 20.9995 6.55162 20.9996 6.75044C20.9997 6.94926 20.9208 7.13998 20.7803 7.28068L10.2803 17.7803C10.2108 17.85 10.1281 17.9053 10.0371 17.943C9.94606 17.9807 9.8485 18.0001 9.74998 17.9999Z" fill="#FFFFFF"/>
</svg>
