<svg width="24" height="24" fill="none" xmlns="http://www.w3.org/2000/svg"><path d="m23.25 11.245-.002-.024a.745.745 0 0 0-.004-.062l-.004-.027a.749.749 0 0 0-.012-.06l-.006-.023a.747.747 0 0 0-.022-.067l-.004-.01-.004-.012-.001-.003-1.306-3.264a1.493 1.493 0 0 0-1.393-.943H17.25V6a.75.75 0 0 0-.75-.75H2.25a1.502 1.502 0 0 0-1.5 1.5v10.5a1.502 1.502 0 0 0 1.5 1.5h1.22a3 3 0 0 0 5.81 0h5.44a3 3 0 0 0 5.81 0h1.22a1.502 1.502 0 0 0 1.5-1.5v-6.005Zm-6-2.995h3.242l.9 2.25H17.25V8.25Zm-15-1.5h13.5v6H2.25v-6ZM6.375 19.5a1.5 1.5 0 1 1 0-3 1.5 1.5 0 0 1 0 3Zm11.25 0a1.5 1.5 0 1 1 0-3 1.5 1.5 0 0 1 0 3Z" fill="#97A0AF"/></svg>