<svg width="24" height="24" viewBox="0 0 24 24" fill="none" xmlns="http://www.w3.org/2000/svg">
<path d="M11.4694 17.7797C11.487 17.7973 11.5055 17.814 11.5248 17.8298C11.5328 17.8363 11.5413 17.842 11.5495 17.8482C11.5608 17.8568 11.5719 17.8655 11.5837 17.8734C11.594 17.8803 11.6046 17.8862 11.6151 17.8925C11.6256 17.8988 11.6358 17.9053 11.6466 17.9111C11.6575 17.9169 11.6687 17.9219 11.6798 17.9271C11.6909 17.9323 11.7018 17.9378 11.7131 17.9425C11.7239 17.947 11.7349 17.9506 11.7459 17.9546C11.7581 17.9589 11.77 17.9636 11.7824 17.9673C11.7934 17.9707 11.8046 17.9731 11.8157 17.9759C11.8283 17.9791 11.8407 17.9826 11.8535 17.9851C11.8666 17.9877 11.8797 17.9892 11.8929 17.9911C11.904 17.9927 11.9148 17.9948 11.926 17.9959C11.9506 17.9983 11.9753 17.9996 12 17.9996C12.0247 17.9996 12.0494 17.9983 12.074 17.9959C12.0852 17.9948 12.096 17.9927 12.1071 17.9911C12.1202 17.9892 12.1334 17.9877 12.1465 17.9851C12.1593 17.9826 12.1717 17.9791 12.1842 17.9759C12.1954 17.9731 12.2065 17.9707 12.2176 17.9673C12.23 17.9636 12.2419 17.9589 12.254 17.9546C12.265 17.9506 12.2761 17.947 12.2869 17.9425C12.2982 17.9378 12.3091 17.9323 12.3201 17.9271C12.3313 17.9219 12.3425 17.9169 12.3534 17.9111C12.3641 17.9053 12.3744 17.8988 12.3848 17.8925C12.3954 17.8862 12.406 17.8803 12.4162 17.8734C12.428 17.8655 12.4392 17.8568 12.4505 17.8482C12.4587 17.842 12.4672 17.8363 12.4752 17.8298C12.4945 17.814 12.513 17.7973 12.5306 17.7797L19.2803 11.03C19.421 10.8893 19.5 10.6985 19.5 10.4996C19.5 10.3007 19.421 10.11 19.2803 9.96931C19.1397 9.82866 18.9489 9.74965 18.75 9.74965C18.5511 9.74965 18.3603 9.82867 18.2197 9.96932L12.75 15.439V2.24963C12.75 2.05072 12.671 1.85996 12.5303 1.7193C12.3897 1.57865 12.1989 1.49963 12 1.49963C11.8011 1.49963 11.6103 1.57865 11.4697 1.7193C11.329 1.85996 11.25 2.05072 11.25 2.24963V15.439L5.7803 9.96932C5.63965 9.82867 5.44889 9.74965 5.24998 9.74965C5.05108 9.74965 4.86032 9.82866 4.71967 9.96931C4.57902 10.11 4.5 10.3007 4.5 10.4996C4.5 10.6985 4.57902 10.8893 4.71967 11.03L11.4694 17.7797Z" fill="#97A0AF"/>
<path d="M19.5 19.4996H4.5C4.30109 19.4996 4.11032 19.5787 3.96967 19.7193C3.82902 19.86 3.75 20.0507 3.75 20.2496C3.75 20.4485 3.82902 20.6393 3.96967 20.78C4.11032 20.9206 4.30109 20.9996 4.5 20.9996H19.5C19.6989 20.9996 19.8897 20.9206 20.0303 20.78C20.171 20.6393 20.25 20.4485 20.25 20.2496C20.25 20.0507 20.171 19.86 20.0303 19.7193C19.8897 19.5787 19.6989 19.4996 19.5 19.4996Z" fill="#97A0AF"/>
</svg>
