<svg width="24" height="24" viewBox="0 0 24 24" fill="none" xmlns="http://www.w3.org/2000/svg">
<path d="M20.2494 2.99939H8.24942C8.05051 2.9994 7.85975 3.07842 7.7191 3.21907C7.57845 3.35972 7.49943 3.55048 7.49942 3.74939V7.49948H3.74933C3.55042 7.49949 3.35966 7.57851 3.21901 7.71916C3.07836 7.85981 2.99934 8.05057 2.99933 8.24948V20.2495C2.99934 20.4484 3.07836 20.6392 3.21901 20.7798C3.35966 20.9205 3.55042 20.9995 3.74933 20.9995H15.7493C15.9482 20.9995 16.139 20.9205 16.2797 20.7798C16.4203 20.6392 16.4993 20.4484 16.4993 20.2495V16.4994H20.2494C20.4483 16.4994 20.6391 16.4204 20.7797 16.2797C20.9204 16.1391 20.9994 15.9483 20.9994 15.7494V3.74939C20.9994 3.55048 20.9204 3.35972 20.7797 3.21907C20.6391 3.07842 20.4483 2.9994 20.2494 2.99939ZM19.4994 14.9994H16.4993V8.24948C16.4993 8.05057 16.4203 7.85981 16.2797 7.71916C16.139 7.57851 15.9482 7.49949 15.7493 7.49948H8.99942V4.49939H19.4994V14.9994Z" fill="#97A0AF"/>
</svg>
