<svg width="24" height="24" viewBox="0 0 24 24" fill="none" xmlns="http://www.w3.org/2000/svg">
<path d="M15.0002 1.5C13.8165 1.50086 12.6496 1.78172 11.5951 2.31965C10.5406 2.85758 9.6283 3.63732 8.93269 4.59518C8.23709 5.55304 7.77792 6.66186 7.59269 7.83107C7.40746 9.00029 7.50143 10.1967 7.86691 11.3227L2.46988 16.7196C2.32925 16.8603 2.25025 17.0511 2.25024 17.25V21C2.25025 21.1989 2.32927 21.3897 2.46992 21.5303C2.61057 21.671 2.80133 21.75 3.00024 21.75H6.75024C6.94915 21.75 7.13991 21.671 7.28056 21.5303C7.42121 21.3897 7.50023 21.1989 7.50024 21V19.5H9.00024C9.19915 19.5 9.38991 19.421 9.53056 19.2803C9.67121 19.1397 9.75023 18.9489 9.75024 18.75V17.25H11.2502C11.4492 17.25 11.6399 17.171 11.7806 17.0304L12.6776 16.1333C13.7087 16.469 14.8004 16.5771 15.8773 16.4502C16.9543 16.3233 17.9909 15.9643 18.9157 15.3981C19.8406 14.8319 20.6317 14.072 21.2345 13.1705C21.8373 12.2691 22.2375 11.2477 22.4075 10.1767C22.5775 9.10573 22.5133 8.01061 22.2192 6.96684C21.9251 5.92307 21.4083 4.95547 20.7042 4.13072C20.0001 3.30598 19.1256 2.6437 18.1408 2.18954C17.1561 1.73538 16.0846 1.50013 15.0002 1.5ZM16.875 8.625C16.5783 8.625 16.2883 8.53703 16.0417 8.3722C15.795 8.20738 15.6027 7.97311 15.4892 7.69903C15.3757 7.42494 15.346 7.12334 15.4038 6.83236C15.4617 6.54139 15.6046 6.27412 15.8144 6.06434C16.0241 5.85456 16.2914 5.7117 16.5824 5.65382C16.8734 5.59594 17.175 5.62565 17.449 5.73918C17.7231 5.85271 17.9574 6.04497 18.1222 6.29165C18.287 6.53832 18.375 6.82833 18.375 7.125C18.375 7.52282 18.217 7.90435 17.9357 8.18566C17.6544 8.46696 17.2728 8.625 16.875 8.625Z" fill="#97A0AF"/>
</svg>
