<svg width="24" height="24" viewBox="0 0 24 24" fill="none" xmlns="http://www.w3.org/2000/svg">
<path d="M13.0607 11.9999L19.2803 5.78022C19.4208 5.63954 19.4997 5.44882 19.4997 5.24999C19.4996 5.05117 19.4206 4.8605 19.28 4.71991C19.1394 4.57932 18.9487 4.50031 18.7499 4.50024C18.5511 4.50018 18.3604 4.57907 18.2197 4.71958L12 10.9393L5.78033 4.71958C5.63965 4.57907 5.44894 4.50018 5.25011 4.50024C5.05128 4.50031 4.86062 4.57932 4.72003 4.71991C4.57943 4.8605 4.50042 5.05117 4.50036 5.24999C4.5003 5.44882 4.57919 5.63954 4.71969 5.78022L10.9394 11.9999L4.71969 18.2196C4.64998 18.2892 4.59467 18.3719 4.55692 18.4629C4.51917 18.5539 4.49973 18.6515 4.49969 18.75C4.49966 18.8485 4.51905 18.9461 4.55674 19.0371C4.59443 19.1282 4.64969 19.2109 4.71936 19.2805C4.78903 19.3502 4.87175 19.4055 4.96278 19.4432C5.05382 19.4809 5.15139 19.5002 5.24992 19.5002C5.34844 19.5002 5.446 19.4807 5.53701 19.443C5.62802 19.4052 5.7107 19.3499 5.78033 19.2802L12 13.0605L18.2197 19.2802C18.3604 19.4207 18.5511 19.4996 18.7499 19.4995C18.9487 19.4995 19.1394 19.4205 19.28 19.2799C19.4206 19.1393 19.4996 18.9486 19.4997 18.7498C19.4997 18.551 19.4208 18.3603 19.2803 18.2196L13.0607 11.9999Z" fill="#97A0AF"/>
</svg>
