<svg width="24" height="24" viewBox="0 0 24 24" fill="none" xmlns="http://www.w3.org/2000/svg">
<path d="M21.1711 6.82787C21.1682 6.82242 21.1659 6.81679 21.1628 6.81134C21.1602 6.8069 21.1571 6.80292 21.1545 6.79852C21.0211 6.57272 20.8308 6.38587 20.6025 6.25662L12.7275 1.8056C12.5021 1.67904 12.248 1.61256 11.9895 1.61255C11.7309 1.61254 11.4768 1.67901 11.2513 1.80556L3.37625 6.25672C3.14416 6.38807 2.95131 6.57896 2.8176 6.80969C2.81618 6.81217 2.81448 6.81436 2.81311 6.81683C2.81068 6.82118 2.80888 6.82572 2.80654 6.83011C2.68087 7.05378 2.61472 7.30597 2.61444 7.56253V16.4373C2.6147 16.7029 2.68535 16.9636 2.81918 17.193C2.95302 17.4224 3.14527 17.6123 3.37635 17.7432L11.2513 22.1942C11.4611 22.3121 11.6961 22.3778 11.9366 22.3856C11.9516 22.3867 11.9664 22.3882 11.9817 22.3883C11.9843 22.3884 11.987 22.3884 11.9896 22.3884C12.01 22.3884 12.03 22.3869 12.05 22.3853C12.2878 22.3764 12.5201 22.3109 12.7275 22.1943L20.6026 17.7431C20.8337 17.6122 21.0259 17.4224 21.1597 17.193C21.2936 16.9636 21.3642 16.7029 21.3645 16.4373V7.56254C21.3642 7.30511 21.2976 7.05209 21.1711 6.82787ZM11.9894 3.11142L19.097 7.12871L16.5916 8.56128L9.42862 4.55887L11.9894 3.11142ZM12.0847 11.1384L4.89528 7.12116L7.89988 5.4229L15.0718 9.43035L12.0847 11.1384ZM12.7517 20.4576L12.8345 12.4375L15.8458 10.7156V13.9228C15.8458 14.1217 15.9248 14.3125 16.0655 14.4531C16.2062 14.5938 16.3969 14.6728 16.5958 14.6728C16.7947 14.6728 16.9855 14.5938 17.1262 14.4531C17.2668 14.3125 17.3458 14.1217 17.3458 13.9228V9.8579L19.8644 8.41772V16.4373L12.7517 20.4576Z" fill="#97A0AF"/>
</svg>
