<svg width="24" height="24" viewBox="0 0 24 24" fill="none" xmlns="http://www.w3.org/2000/svg">
<path d="M19.7494 6.75H18.7495V3.75C18.7494 3.55109 18.6704 3.36032 18.5298 3.21967C18.3891 3.07902 18.1984 3 17.9995 3H5.99945C5.80054 3 5.60977 3.07902 5.46912 3.21967C5.32847 3.36032 5.24945 3.55109 5.24945 3.75V6.75H4.24947C2.9399 6.75 1.87445 7.75937 1.87445 9V16.5C1.87445 16.6989 1.95347 16.8897 2.09412 17.0303C2.23477 17.171 2.42554 17.25 2.62445 17.25H5.24945V20.625C5.24945 20.8239 5.32847 21.0147 5.46912 21.1553C5.60977 21.296 5.80054 21.375 5.99945 21.375H17.9995C18.1984 21.375 18.3891 21.296 18.5298 21.1553C18.6704 21.0147 18.7494 20.8239 18.7495 20.625V17.25H21.3745C21.5734 17.25 21.7641 17.171 21.9048 17.0303C22.0454 16.8897 22.1244 16.6989 22.1245 16.5V9C22.1245 7.75937 21.059 6.75 19.7494 6.75ZM6.74945 4.5H17.2495V6.75H6.74945V4.5ZM17.2495 19.875H6.74945V15H17.2495V19.875ZM17.6245 12C17.4019 12 17.1844 11.934 16.9994 11.8104C16.8144 11.6868 16.6702 11.5111 16.5851 11.3055C16.4999 11.1 16.4777 10.8738 16.5211 10.6555C16.5645 10.4373 16.6716 10.2368 16.829 10.0795C16.9863 9.92217 17.1867 9.81502 17.405 9.77162C17.6232 9.72821 17.8494 9.75049 18.055 9.83564C18.2605 9.92078 18.4362 10.065 18.5599 10.25C18.6835 10.435 18.7495 10.6525 18.7495 10.875C18.7495 11.0227 18.7204 11.169 18.6638 11.3055C18.6073 11.442 18.5244 11.566 18.4199 11.6705C18.3155 11.775 18.1915 11.8578 18.055 11.9144C17.9185 11.9709 17.7722 12 17.6245 12Z" fill="#97A0AF"/>
</svg>
