<svg width="24" height="24" viewBox="0 0 24 24" fill="none" xmlns="http://www.w3.org/2000/svg">
<path d="M21.6802 2.97517C21.4736 2.79671 21.222 2.67821 20.9528 2.63247C20.6836 2.58674 20.4071 2.61552 20.153 2.71571L2.85081 9.51304C2.54923 9.63152 2.29412 9.84447 2.12365 10.12C1.95319 10.3956 1.87653 10.7189 1.90516 11.0417C1.93379 11.3644 2.06615 11.6692 2.28246 11.9105C2.49876 12.1517 2.78737 12.3165 3.1051 12.38L7.49999 13.259V18.7484C7.49974 19.0452 7.58756 19.3354 7.75234 19.5822C7.91712 19.8291 8.15144 20.0214 8.42564 20.135C8.69983 20.2486 9.00156 20.2782 9.29261 20.2202C9.58367 20.1622 9.85096 20.0191 10.0606 19.8091L12.4928 17.3769L16.1843 20.6254C16.4561 20.8668 16.8068 21.0003 17.1703 21.0007C17.3283 21.0005 17.4853 20.9756 17.6356 20.9269C17.8835 20.8483 18.1065 20.706 18.2822 20.5143C18.458 20.3226 18.5804 20.0882 18.6373 19.8344L22.1636 4.44697C22.225 4.18089 22.2124 3.90308 22.1272 3.64365C22.042 3.38421 21.8874 3.15303 21.6802 2.97517ZM17.1752 19.4993L9.45094 12.7019L20.5739 4.66876L17.1752 19.4993Z" fill="#97A0AF"/>
</svg>
