<svg width="24" height="24" fill="none" xmlns="http://www.w3.org/2000/svg"><path d="M11.47 17.78a.752.752 0 0 0 .055.05l.024.018c.012.009.023.018.035.025l.031.02.032.018c.01.006.022.01.033.016l.033.015.033.013.036.012c.011.004.023.006.034.009l.037.01.04.005.033.005a.762.762 0 0 0 .148 0l.033-.005.04-.006a.254.254 0 0 0 .037-.01c.011-.002.023-.004.034-.008l.036-.012.033-.012.033-.016.033-.016.032-.019.031-.019.034-.025.025-.018a.752.752 0 0 0 .056-.05l6.75-6.75a.75.75 0 0 0-1.061-1.06l-5.47 5.469V2.249a.75.75 0 1 0-1.5 0v13.19l-5.47-5.47a.75.75 0 1 0-1.06 1.061l6.75 6.75Zm8.03 1.72h-15a.75.75 0 0 0 0 1.5h15a.75.75 0 1 0 0-1.5Z" fill="#97A0AF"/></svg>