<svg width="1096" height="134" fill="none" xmlns="http://www.w3.org/2000/svg"><path d="M262.044 0v29.953h-46.509V134h-32.04V29.953h-46.517V0h125.066Z" fill="#2C353E"/><path d="M64.233 0 0 80.554l10.317 30.342h53.916V134h31.74v-23.104h23.138v-30.35H95.972V0h-31.74Zm.276 39.514v40.234H29.772l34.737-40.234Z" fill="#FF445B"/><path d="M348.415 2.284h-62.548v129.432h31.179V99.548h22.813l19.392 32.168h38.784l-26.617-39.02c13.879-7.423 23.004-23.222 23.004-41.875 0-28.17-19.772-48.537-46.007-48.537Zm-4.373 28.932c10.456 0 19.011 8.946 19.011 19.605 0 10.85-8.555 19.796-19.201 19.796h-26.806V31.215h26.996ZM474.936 0c-37.072 0-66.73 30.264-66.73 67 0 36.926 29.658 67 66.73 67 36.692 0 66.731-30.074 66.731-67 0-36.736-30.039-67-66.731-67Zm0 29.122c20.723 0 37.833 16.94 37.833 37.878 0 21.128-17.11 38.068-37.833 38.068-21.103 0-38.213-16.94-38.213-38.068 0-20.938 17.11-37.878 38.213-37.878Zm184.911 55.96c-6.274 11.42-18.061 19.606-34.031 19.606-22.623 0-38.403-18.083-38.403-38.64 0-21.318 15.78-37.877 38.403-37.877 16.35 0 28.327 7.803 34.411 19.605l26.426-15.418C675.056 12.943 653.383 0 625.816 0c-40.494 0-69.962 30.074-69.962 66.048 0 38.259 29.468 67.952 69.962 67.952 27.377 0 48.86-14.276 60.457-33.69l-26.426-15.228ZM826.9 2.284h-39.164l-49.43 56.912V2.284h-31.178v129.432h31.178v-29.122L760.55 78.23l35.361 53.486h40.495l-53.993-77.279L826.9 2.285Zm28.941 0v129.432h99.05v-28.932H887.02v-22.27h56.654V53.486H887.02v-22.27h67.871V2.284h-99.05Zm239.979 0H972.628v28.932h45.822v100.5H1050v-100.5h45.82V2.284Z" fill="#4E5A6D"/></svg>