<svg width="24" height="24" fill="none" xmlns="http://www.w3.org/2000/svg"><path d="m21.171 6.828-.008-.017-.009-.012a1.499 1.499 0 0 0-.552-.542l-7.875-4.451a1.507 1.507 0 0 0-1.476 0l-7.875 4.45a1.499 1.499 0 0 0-.558.554l-.005.007-.006.013a1.499 1.499 0 0 0-.193.733v8.874a1.502 1.502 0 0 0 .762 1.306l7.875 4.451c.21.118.445.184.686.192l.045.002h.008l.06-.003a1.5 1.5 0 0 0 .677-.19l7.876-4.452a1.502 1.502 0 0 0 .761-1.306V7.563c0-.258-.066-.51-.193-.735ZM11.99 3.11l7.108 4.018-2.505 1.432-7.164-4 2.56-1.448Zm.096 8.027L4.896 7.12 7.9 5.423l7.172 4.007-2.987 1.708Zm.667 9.32.082-8.02 3.012-1.722v3.207a.75.75 0 1 0 1.5 0V9.858l2.518-1.44v8.02l-7.112 4.02Z" fill="#97A0AF"/></svg>