<svg width="24" height="24" fill="none" xmlns="http://www.w3.org/2000/svg"><path d="M20.622 15.852 12 20.882l-8.622-5.03a.75.75 0 1 0-.756 1.296l9 5.25a.75.75 0 0 0 .756 0l9-5.25a.75.75 0 1 0-.756-1.296Z" fill="#97A0AF"/><path d="M20.622 11.352 12 16.382l-8.622-5.03a.75.75 0 1 0-.756 1.296l9 5.25a.75.75 0 0 0 .756 0l9-5.25a.75.75 0 1 0-.756-1.296Z" fill="#97A0AF"/><path d="m2.622 8.148 9 5.25a.75.75 0 0 0 .756 0l9-5.25a.75.75 0 0 0 0-1.296l-9-5.25a.75.75 0 0 0-.756 0l-9 5.25a.75.75 0 0 0 0 1.296Z" fill="#97A0AF"/></svg>