<svg width="24" height="24" fill="none" xmlns="http://www.w3.org/2000/svg"><path d="M12.97 19.28a.75.75 0 0 1 0-1.06l5.47-5.47H3.75a.75.75 0 1 1 0-1.5h14.69l-5.47-5.47a.75.75 0 1 1 1.06-1.06l6.75 6.75.007.007a.63.63 0 0 1 .043.047l.021.029.023.03.02.034.017.03.017.034.015.032c.005.011.008.022.012.034l.013.035.008.034.01.037.005.04.005.033a.762.762 0 0 1 0 .148c0 .011-.003.022-.005.033a.276.276 0 0 1-.006.04l-.009.037-.008.034-.013.035c-.004.012-.007.023-.012.034l-.015.032c-.006.012-.01.023-.017.035l-.017.03-.02.032-.023.031-.021.029a.733.733 0 0 1-.043.048l-.007.006-6.75 6.75a.75.75 0 0 1-1.06 0Z" fill="#97A0AF"/></svg>