<svg width="24" height="24" fill="none" xmlns="http://www.w3.org/2000/svg"><path d="M11.03 19.28a.75.75 0 0 0 0-1.06l-5.47-5.47h14.69a.75.75 0 1 0 0-1.5H5.56l5.47-5.47a.75.75 0 0 0-1.06-1.06l-6.75 6.75-.007.007a.757.757 0 0 0-.043.047l-.021.029-.023.03-.02.034-.017.03-.017.034-.015.032-.012.034-.013.035-.008.034-.01.037-.005.04-.005.033a.756.756 0 0 0 0 .148c0 .011.003.022.005.033a.276.276 0 0 0 .006.04l.009.037.008.034.013.035.012.034.015.032c.006.012.01.023.017.035l.017.03.02.032.023.031.021.029a.76.76 0 0 0 .044.048l.006.006 6.75 6.75a.75.75 0 0 0 1.06 0Z" fill="#97A0AF"/></svg>