<svg width="24" height="24" viewBox="0 0 24 24" fill="none" xmlns="http://www.w3.org/2000/svg">
<path d="M11.0304 19.2803C11.171 19.1397 11.25 18.9489 11.25 18.75C11.25 18.5511 11.171 18.3604 11.0304 18.2197L5.56064 12.75H20.25C20.4489 12.75 20.6397 12.671 20.7803 12.5303C20.921 12.3897 21 12.1989 21 12C21 11.8011 20.921 11.6103 20.7803 11.4697C20.6397 11.329 20.4489 11.25 20.25 11.25H5.56064L11.0304 5.78034C11.171 5.63967 11.25 5.4489 11.25 5.24998C11.25 5.05107 11.171 4.8603 11.0303 4.71965C10.8897 4.579 10.6989 4.49999 10.5 4.5C10.3011 4.50001 10.1103 4.57904 9.96964 4.7197L3.21963 11.4697C3.21719 11.4721 3.21517 11.4748 3.21277 11.4773C3.19796 11.4925 3.18359 11.5081 3.1701 11.5245C3.16257 11.5336 3.15601 11.5434 3.14898 11.5528C3.14139 11.5629 3.13348 11.5729 3.12639 11.5835C3.11908 11.5944 3.11274 11.6057 3.10606 11.617C3.10022 11.6268 3.09407 11.6363 3.08864 11.6464C3.08262 11.6577 3.0775 11.6693 3.07207 11.6808C3.06701 11.6915 3.06168 11.7021 3.05713 11.713C3.05255 11.7241 3.04884 11.7354 3.04481 11.7467C3.04056 11.7585 3.03602 11.7702 3.03236 11.7823C3.02897 11.7935 3.02648 11.8049 3.02362 11.8163C3.0205 11.8286 3.01703 11.8409 3.01453 11.8535C3.01194 11.8666 3.01039 11.8798 3.00851 11.8929C3.00693 11.904 3.00483 11.9148 3.00373 11.926C3.00131 11.9506 3 11.9753 3 12C3 12.0247 3.00131 12.0494 3.00373 12.074C3.00483 12.0852 3.00693 12.0961 3.00851 12.1071C3.01039 12.1203 3.01194 12.1335 3.01453 12.1465C3.01703 12.1591 3.0205 12.1714 3.02362 12.1838C3.02648 12.1951 3.02897 12.2065 3.03236 12.2177C3.03602 12.2298 3.04056 12.2415 3.04481 12.2533C3.04884 12.2646 3.05255 12.276 3.05713 12.287C3.06168 12.298 3.06701 12.3085 3.07207 12.3192C3.0775 12.3307 3.08262 12.3423 3.08864 12.3536C3.09407 12.3637 3.10022 12.3733 3.10606 12.3831C3.11274 12.3943 3.11908 12.4056 3.12639 12.4165C3.13348 12.4271 3.14138 12.4371 3.14898 12.4473C3.15601 12.4567 3.16257 12.4664 3.1701 12.4755C3.18381 12.4922 3.19844 12.5081 3.21355 12.5236C3.21568 12.5258 3.21746 12.5282 3.21963 12.5303L9.96964 19.2803C10.0393 19.35 10.122 19.4052 10.213 19.4429C10.304 19.4806 10.4015 19.5 10.5 19.5C10.5985 19.5 10.696 19.4806 10.787 19.4429C10.878 19.4052 10.9607 19.35 11.0304 19.2803Z" fill="#97A0AF"/>
</svg>
